<svg width="42" height="42" viewBox="0 0 42 42" fill="none" xmlns="http://www.w3.org/2000/svg">
<path d="M39.0515 20.7284C39.0515 30.7403 30.9349 38.8659 20.9139 38.8659C10.8929 38.8659 2.77637 30.7403 2.77637 20.7284C2.77637 10.7074 10.8929 2.59082 20.9139 2.59082C30.9349 2.59082 39.0515 10.7074 39.0515 20.7284Z" fill="#283544"/>
<path d="M29.416 16.1386C29.317 16.1964 26.9609 17.4149 26.9609 20.1165C27.0719 23.1976 29.9342 24.2782 29.9833 24.2782C29.9342 24.3359 29.5511 25.7501 28.4165 27.2325C27.5161 28.5095 26.5167 29.797 24.999 29.797C23.5554 29.797 23.0372 28.9459 21.3715 28.9459C19.5827 28.9459 19.0766 29.797 17.707 29.797C16.1893 29.797 15.1159 28.4405 14.1664 27.1756C12.9328 25.5199 11.8843 22.9217 11.8473 20.427C11.8223 19.105 12.0943 17.8055 12.7847 16.7018C13.7592 15.1608 15.4989 14.1148 17.3988 14.0803C18.8545 14.0346 20.15 15.0116 21.0384 15.0116C21.8897 15.0116 23.4814 14.0803 25.2823 14.0803C26.0596 14.0811 28.1325 14.2993 29.416 16.1386ZM20.9153 13.8164C20.6562 12.6091 21.3715 11.4019 22.0378 10.6318C22.8892 9.70048 24.2338 9.06836 25.3933 9.06836C25.4674 10.2756 24.9982 11.4596 24.1598 12.3219C23.4074 13.2532 22.1118 13.9543 20.9153 13.8164Z" fill="white"/>
</svg>
