<svg width="42" height="42" viewBox="0 0 42 42" fill="none" xmlns="http://www.w3.org/2000/svg">
<path d="M39.4109 21.1319C39.4109 19.6406 39.2875 18.5524 39.0202 17.4238H21.6436V24.1548H31.8433C31.6377 25.8275 30.5272 28.3467 28.0595 30.0394L28.0249 30.2647L33.5191 34.4359L33.8997 34.4731C37.3956 31.3091 39.4109 26.6538 39.4109 21.1319Z" fill="#4285F4"/>
<path d="M21.6429 38.8659C26.6399 38.8659 30.8349 37.2536 33.8991 34.4726L28.0588 30.0388C26.496 31.1069 24.3984 31.8526 21.6429 31.8526C16.7487 31.8526 12.5948 28.6886 11.114 24.3154L10.897 24.3335L5.18409 28.6664L5.10938 28.8699C8.15282 34.7949 14.4043 38.8659 21.6429 38.8659Z" fill="#34A853"/>
<path d="M11.1145 24.3163C10.7238 23.1878 10.4977 21.9785 10.4977 20.7291C10.4977 19.4795 10.7238 18.2704 11.094 17.1419L11.0836 16.9015L5.29911 12.499L5.10985 12.5872C3.85549 15.0459 3.13574 17.8069 3.13574 20.7291C3.13574 23.6512 3.85549 26.4121 5.10985 28.8708L11.1145 24.3163Z" fill="#FBBC05"/>
<path d="M21.643 9.60396C25.1183 9.60396 27.4626 11.0751 28.7993 12.3045L34.0226 7.30659C30.8147 4.38443 26.64 2.59082 21.643 2.59082C14.4044 2.59082 8.15284 6.66166 5.10938 12.5866L11.0935 17.1412C12.5948 12.768 16.7488 9.60396 21.643 9.60396Z" fill="#EB4335"/>
</svg>
