<svg width="22" height="22" viewBox="0 0 22 22" fill="none" xmlns="http://www.w3.org/2000/svg">
<g opacity="0.16">
<path d="M9.91992 18.7202C9.17651 20.6388 7.3149 22.0003 5.13379 22.0005C2.29873 22.0005 0 19.7018 0 16.8667C5.63058e-05 14.6856 1.36076 12.8231 3.2793 12.0796L9.91992 18.7202Z" fill="#5FE7FF"/>
<path d="M21.6533 18.7202C20.9099 20.6389 19.0484 22.0004 16.8672 22.0005C14.0321 22.0005 11.7334 19.7018 11.7334 16.8667C11.7335 14.6857 13.0943 12.8232 15.0127 12.0796L21.6533 18.7202Z" fill="#5FE7FF"/>
<path d="M21.6533 6.6416C20.9098 8.56017 19.0483 9.92082 16.8672 9.9209C14.0321 9.9209 11.7334 7.62313 11.7334 4.78809C11.7334 2.60702 13.0943 0.744603 15.0127 0.000976562L21.6533 6.6416Z" fill="#5FE7FF"/>
<path d="M9.91992 6.98682C9.17645 8.90532 7.31481 10.2659 5.13379 10.2661C2.29877 10.2661 6.91291e-05 7.9683 0 5.1333C0 2.95204 1.3606 1.0887 3.2793 0.345215L9.91992 6.98682Z" fill="#5FE7FF"/>
</g>
</svg>
