<svg width="168" height="56" viewBox="0 0 168 56" fill="none" xmlns="http://www.w3.org/2000/svg">
<path d="M10.5745 22.5811C12.1227 22.5811 13.2537 22.2077 13.9674 21.4611C14.6921 20.7145 15.0545 19.6933 15.0545 18.3975C15.0545 17.8046 14.9612 17.2665 14.7745 16.7834C14.5988 16.2893 14.3243 15.8721 13.951 15.5317C13.5886 15.1803 13.1274 14.9113 12.5674 14.7246C12.0074 14.5379 11.3431 14.4446 10.5745 14.4446H7.44508V22.5811H10.5745ZM10.5745 10.6893C12.2106 10.6893 13.6216 10.8815 14.8074 11.2658C16.0043 11.6501 16.987 12.1881 17.7557 12.8799C18.5244 13.5607 19.0898 14.3732 19.4521 15.3175C19.8255 16.2619 20.0121 17.2886 20.0121 18.3975C20.0121 19.5724 19.8199 20.6486 19.4357 21.6258C19.0514 22.603 18.4693 23.443 17.6898 24.1458C16.9102 24.8486 15.9274 25.3975 14.7416 25.7928C13.5557 26.1771 12.1667 26.3693 10.5745 26.3693H7.44508V34.5881H2.50391V10.6893H10.5745ZM46.2483 22.6305C46.2483 24.3764 45.9518 25.9959 45.3589 27.4893C44.7768 28.9827 43.9479 30.2728 42.8718 31.3599C41.8067 32.447 40.522 33.3034 39.0177 33.9293C37.5133 34.5442 35.8443 34.8517 34.0107 34.8517C32.1768 34.8517 30.5079 34.5442 29.0036 33.9293C27.4992 33.3034 26.209 32.447 25.133 31.3599C24.0568 30.2728 23.2224 28.9827 22.6295 27.4893C22.0474 25.9959 21.7565 24.3764 21.7565 22.6305C21.7565 20.8846 22.0474 19.2705 22.6295 17.7881C23.2224 16.2948 24.0568 15.0046 25.133 13.9175C26.209 12.8305 27.4992 11.9795 29.0036 11.3646C30.5079 10.7387 32.1768 10.4258 34.0107 10.4258C35.8443 10.4258 37.5133 10.7387 39.0177 11.3646C40.522 11.9795 41.8067 12.836 42.8718 13.934C43.9479 15.0211 44.7768 16.3113 45.3589 17.8046C45.9518 19.287 46.2483 20.8956 46.2483 22.6305ZM41.1918 22.6305C41.1918 21.3787 41.0271 20.2587 40.6977 19.2705C40.3683 18.2712 39.8907 17.4258 39.2648 16.734C38.6498 16.0313 37.8977 15.4987 37.0083 15.1364C36.1298 14.763 35.1307 14.5764 34.0107 14.5764C32.8907 14.5764 31.886 14.763 30.9965 15.1364C30.1071 15.4987 29.3495 16.0313 28.7236 16.734C28.1086 17.4258 27.6365 18.2712 27.3071 19.2705C26.9777 20.2587 26.813 21.3787 26.813 22.6305C26.813 23.8933 26.9777 25.0242 27.3071 26.0234C27.6365 27.0117 28.1086 27.8517 28.7236 28.5434C29.3495 29.2352 30.1071 29.7677 30.9965 30.1411C31.886 30.5034 32.8907 30.6846 34.0107 30.6846C35.1307 30.6846 36.1298 30.5034 37.0083 30.1411C37.8977 29.7677 38.6498 29.2352 39.2648 28.5434C39.8907 27.8517 40.3683 27.0117 40.6977 26.0234C41.0271 25.0242 41.1918 23.8933 41.1918 22.6305ZM57.9274 22.5811C59.4757 22.5811 60.6067 22.2077 61.3204 21.4611C62.0451 20.7145 62.4074 19.6933 62.4074 18.3975C62.4074 17.8046 62.314 17.2665 62.1274 16.7834C61.9517 16.2893 61.6773 15.8721 61.3039 15.5317C60.9416 15.1803 60.4804 14.9113 59.9204 14.7246C59.3604 14.5379 58.6961 14.4446 57.9274 14.4446H54.798V22.5811H57.9274ZM57.9274 10.6893C59.5635 10.6893 60.9745 10.8815 62.1604 11.2658C63.3573 11.6501 64.3399 12.1881 65.1086 12.8799C65.8773 13.5607 66.4427 14.3732 66.8051 15.3175C67.1785 16.2619 67.3651 17.2886 67.3651 18.3975C67.3651 19.5724 67.1729 20.6486 66.7886 21.6258C66.4043 22.603 65.8223 23.443 65.0427 24.1458C64.2632 24.8486 63.2804 25.3975 62.0945 25.7928C60.9086 26.1771 59.5196 26.3693 57.9274 26.3693H54.798V34.5881H49.8568V10.6893H57.9274ZM86.7824 28.7081C87.0568 28.7081 87.2874 28.807 87.4742 29.0046L89.4342 31.0964C88.4678 32.3262 87.2655 33.2595 85.8271 33.8964C84.3996 34.5333 82.6977 34.8517 80.7212 34.8517C78.9314 34.8517 77.3227 34.5498 75.8954 33.9458C74.4679 33.3309 73.2545 32.4799 72.2554 31.3928C71.2561 30.3058 70.4874 29.0156 69.9495 27.5223C69.4114 26.0289 69.1424 24.3983 69.1424 22.6305C69.1424 21.4446 69.2686 20.3192 69.5212 19.254C69.7848 18.178 70.1636 17.1898 70.6577 16.2893C71.1518 15.3889 71.7448 14.5764 72.4365 13.8517C73.1392 13.127 73.9298 12.5121 74.8083 12.007C75.6867 11.4909 76.642 11.1011 77.6742 10.8375C78.7173 10.563 79.8262 10.4258 81.0012 10.4258C81.8796 10.4258 82.7086 10.5026 83.4883 10.6564C84.2789 10.8101 85.0145 11.0242 85.6954 11.2987C86.3761 11.5732 87.002 11.9081 87.573 12.3034C88.1549 12.6877 88.6765 13.1105 89.1377 13.5717L87.4742 15.8446C87.3754 15.9874 87.249 16.1136 87.0954 16.2234C86.9415 16.3332 86.733 16.3881 86.4695 16.3881C86.2059 16.3881 85.9368 16.2948 85.6624 16.1081C85.3989 15.9215 85.0695 15.7128 84.6742 15.4823C84.2898 15.2517 83.8012 15.043 83.2083 14.8564C82.6262 14.6697 81.8851 14.5764 80.9848 14.5764C79.9855 14.5764 79.0686 14.7575 78.2342 15.1199C77.3996 15.4823 76.6803 16.0093 76.0765 16.7011C75.4836 17.3818 75.0224 18.2218 74.693 19.2211C74.3636 20.2203 74.1989 21.3568 74.1989 22.6305C74.1989 23.9152 74.3745 25.0627 74.7259 26.0728C75.0883 27.0721 75.5768 27.9175 76.1918 28.6093C76.8177 29.3011 77.5424 29.8281 78.366 30.1905C79.2003 30.5418 80.0898 30.7175 81.0342 30.7175C81.5942 30.7175 82.0992 30.69 82.5495 30.6352C83.0107 30.5803 83.4333 30.487 83.8177 30.3552C84.213 30.2234 84.5808 30.0533 84.9212 29.8446C85.2726 29.6359 85.6239 29.3724 85.9754 29.054C86.0961 28.9552 86.2224 28.8728 86.3542 28.807C86.4859 28.7411 86.6286 28.7081 86.7824 28.7081ZM130.97 22.0046C131.771 22.0046 132.463 21.9058 133.045 21.7081C133.627 21.4995 134.105 21.2195 134.478 20.8681C134.851 20.5058 135.126 20.083 135.301 19.5999C135.477 19.1168 135.565 18.5898 135.565 18.0187C135.565 16.8877 135.186 16.0093 134.428 15.3834C133.682 14.7575 132.54 14.4446 131.003 14.4446H128.433V22.0046H130.97ZM142.548 34.5881H138.085C137.25 34.5881 136.646 34.2698 136.273 33.6328L131.727 26.3034C131.541 26.018 131.332 25.8093 131.101 25.6775C130.882 25.5458 130.552 25.4799 130.113 25.4799H128.433V34.5881H123.492V10.6893H131.003C132.672 10.6893 134.099 10.865 135.285 11.2164C136.471 11.5568 137.442 12.0344 138.2 12.6493C138.958 13.2642 139.512 13.9999 139.864 14.8564C140.215 15.7019 140.391 16.6352 140.391 17.6564C140.391 18.447 140.275 19.1992 140.045 19.9128C139.825 20.6156 139.501 21.258 139.073 21.8399C138.645 22.4218 138.118 22.938 137.492 23.3881C136.866 23.8383 136.152 24.2006 135.351 24.4752C135.669 24.6509 135.966 24.8651 136.24 25.1175C136.515 25.3592 136.762 25.65 136.981 25.9905L142.548 34.5881ZM165.357 10.6893V34.5881H162.804C162.42 34.5881 162.096 34.5277 161.833 34.407C161.569 34.2752 161.311 34.0556 161.059 33.7481L149.15 18.5952C149.183 18.9795 149.205 19.3583 149.216 19.7317C149.238 20.1051 149.249 20.4509 149.249 20.7693V34.5881H144.884V10.6893H147.487C147.695 10.6893 147.871 10.7003 148.014 10.7223C148.167 10.7332 148.305 10.7717 148.426 10.8375C148.546 10.8924 148.662 10.9693 148.771 11.0681C148.881 11.167 149.002 11.2987 149.134 11.4634L161.124 26.6823C161.08 26.2651 161.047 25.8642 161.026 25.4799C161.004 25.0846 160.993 24.7112 160.993 24.3599V10.6893H165.357Z" fill="white"/>
<path d="M6.94633 44.8776V47.1555H9.72822V48.0894H6.94633V51.0591H5.78516V43.9438H10.2223V44.8776H6.94633ZM14.4077 46.9529C14.5658 46.6334 14.7568 46.3831 14.9808 46.2019C15.2048 46.0174 15.4733 45.9252 15.7862 45.9252C15.895 45.9252 15.9971 45.9384 16.0926 45.9647C16.1881 45.9878 16.2738 46.024 16.3495 46.0734L16.2754 46.8739C16.2622 46.9299 16.2408 46.9694 16.2112 46.9925C16.1848 47.0122 16.1486 47.0221 16.1025 47.0221C16.0531 47.0221 15.9822 47.0139 15.89 46.9974C15.7978 46.9776 15.7006 46.9678 15.5985 46.9678C15.4502 46.9678 15.3185 46.9892 15.2032 47.032C15.0912 47.0748 14.9891 47.1374 14.8968 47.2198C14.8079 47.3021 14.7288 47.4026 14.6597 47.5212C14.5905 47.6398 14.5262 47.7748 14.467 47.9264V51.0591H13.4046V46.0191H14.0222C14.1342 46.0191 14.2117 46.0405 14.2545 46.0833C14.2973 46.1228 14.327 46.1936 14.3434 46.2958L14.4077 46.9529ZM21.9942 48.8553C21.6154 48.8685 21.2958 48.8998 21.0356 48.9492C20.7754 48.9953 20.5645 49.0562 20.4031 49.132C20.2417 49.2045 20.1248 49.2918 20.0523 49.3939C19.9831 49.496 19.9485 49.608 19.9485 49.7299C19.9485 49.8485 19.9667 49.9506 20.0029 50.0362C20.0424 50.1186 20.0951 50.1878 20.161 50.2438C20.2302 50.2965 20.3093 50.336 20.3982 50.3624C20.4904 50.3854 20.5909 50.3969 20.6996 50.3969C20.9763 50.3969 21.2135 50.3459 21.4111 50.2438C21.6121 50.1383 21.8064 49.9868 21.9942 49.7892V48.8553ZM19.1777 46.7207C19.7476 46.1903 20.4262 45.9252 21.2135 45.9252C21.5034 45.9252 21.7603 45.9729 21.9843 46.0685C22.2116 46.1607 22.401 46.2925 22.5525 46.4638C22.7074 46.6351 22.8243 46.8393 22.9034 47.0765C22.9857 47.3104 23.0269 47.5706 23.0269 47.8572V51.0591H22.5525C22.4504 51.0591 22.373 51.0442 22.3203 51.0146C22.2676 50.9816 22.2231 50.9174 22.1869 50.8219L22.0831 50.4118C21.9547 50.5271 21.8278 50.6308 21.7027 50.7231C21.5775 50.812 21.4474 50.8878 21.3123 50.9504C21.1805 51.0129 21.0373 51.0591 20.8824 51.0887C20.7309 51.1216 20.5629 51.1381 20.3784 51.1381C20.1742 51.1381 19.9831 51.1101 19.8052 51.0541C19.6307 50.9981 19.4791 50.9141 19.3507 50.8021C19.2222 50.6868 19.1201 50.5452 19.0443 50.3772C18.9718 50.2092 18.9356 50.0115 18.9356 49.7842C18.9356 49.5899 18.9867 49.4005 19.0888 49.216C19.1942 49.0315 19.3655 48.8668 19.6027 48.7219C19.8431 48.5736 20.1577 48.4518 20.5464 48.3562C20.9384 48.2607 21.421 48.2064 21.9942 48.1932V47.8572C21.9942 47.4948 21.9168 47.2247 21.762 47.0468C21.6071 46.8689 21.3798 46.78 21.0801 46.78C20.8758 46.78 20.7045 46.8064 20.5662 46.8591C20.4278 46.9085 20.3076 46.9628 20.2055 47.0221C20.1034 47.0814 20.0128 47.1374 19.9337 47.1901C19.8547 47.2395 19.7707 47.2642 19.6817 47.2642C19.6093 47.2642 19.5467 47.2461 19.494 47.2099C19.4445 47.1704 19.4034 47.1226 19.3704 47.0666L19.1777 46.7207ZM27.7255 46.6861C27.8342 46.5741 27.9462 46.4736 28.0615 46.3847C28.1801 46.2925 28.3052 46.2134 28.437 46.1475C28.5688 46.0816 28.7088 46.0306 28.857 45.9943C29.0052 45.9581 29.1666 45.94 29.3412 45.94C29.6179 45.94 29.86 45.9861 30.0676 46.0784C30.2784 46.1706 30.4546 46.3007 30.5963 46.4687C30.7412 46.6367 30.8499 46.8393 30.9224 47.0765C30.9949 47.3104 31.0311 47.5689 31.0311 47.8522V51.0591H29.9737V47.8522C29.9737 47.5129 29.8946 47.2494 29.7365 47.0616C29.5817 46.8739 29.3445 46.78 29.025 46.78C28.7878 46.78 28.5671 46.8344 28.3629 46.9431C28.1619 47.0518 27.9725 47.2 27.7946 47.3878V51.0591H26.7323V46.0191H27.3746C27.5196 46.0191 27.6118 46.0866 27.6513 46.2216L27.7255 46.6861ZM37.9494 47.2593C37.8012 47.0715 37.6381 46.9398 37.4602 46.864C37.2824 46.7849 37.0896 46.7454 36.8821 46.7454C36.4671 46.7454 36.1426 46.8986 35.9087 47.2049C35.6748 47.508 35.5579 47.9576 35.5579 48.5539C35.5579 48.8635 35.5842 49.1287 35.6369 49.3494C35.6897 49.5668 35.7654 49.7447 35.8642 49.8831C35.9631 50.0214 36.0833 50.1219 36.2249 50.1845C36.3666 50.2471 36.5264 50.2783 36.7042 50.2783C36.9744 50.2783 37.2066 50.2207 37.4009 50.1054C37.5986 49.9868 37.7814 49.8205 37.9494 49.6064V47.2593ZM39.0118 46.0191V52.7341H37.9494V50.3722C37.7419 50.5995 37.508 50.784 37.2478 50.9256C36.9908 51.064 36.6911 51.1332 36.3485 51.1332C36.0652 51.1332 35.8082 51.0772 35.5776 50.9652C35.3471 50.8499 35.1494 50.6835 34.9847 50.4661C34.82 50.2487 34.6915 49.9802 34.5993 49.6607C34.5104 49.3379 34.4659 48.9689 34.4659 48.5539C34.4659 48.1784 34.5153 47.8308 34.6141 47.5113C34.7162 47.1918 34.8612 46.9151 35.0489 46.6812C35.2367 46.444 35.464 46.2595 35.7308 46.1278C36.0009 45.9927 36.3024 45.9252 36.6351 45.9252C36.7965 45.9252 36.9431 45.94 37.0748 45.9696C37.2099 45.996 37.3334 46.0372 37.4454 46.0932C37.5607 46.1459 37.6661 46.2118 37.7617 46.2908C37.8572 46.3666 37.9478 46.4539 38.0334 46.5527L38.0976 46.2216C38.1372 46.0866 38.2278 46.0191 38.3694 46.0191H39.0118ZM47.0213 46.0191V51.0591H46.3789C46.2373 51.0591 46.1467 50.9915 46.1071 50.8565L46.0281 50.3871C45.9227 50.4991 45.8107 50.6012 45.6921 50.6934C45.5768 50.7856 45.4533 50.8647 45.3215 50.9306C45.1897 50.9965 45.0481 51.0475 44.8965 51.0838C44.7483 51.12 44.5885 51.1381 44.4173 51.1381C44.1405 51.1381 43.8968 51.092 43.686 50.9998C43.4751 50.9075 43.2972 50.7774 43.1523 50.6094C43.0107 50.4414 42.9036 50.2405 42.8311 50.0066C42.7587 49.7694 42.7224 49.5092 42.7224 49.2259V46.0191H43.7848V49.2259C43.7848 49.5652 43.8622 49.8287 44.017 50.0165C44.1751 50.2042 44.414 50.2981 44.7335 50.2981C44.9674 50.2981 45.1848 50.2454 45.3857 50.14C45.59 50.0313 45.781 49.8831 45.9589 49.6953V46.0191H47.0213ZM51.8791 46.0191V51.0591H50.8167V46.0191H51.8791ZM52.057 44.4972C52.057 44.5927 52.0372 44.6833 51.9977 44.7689C51.9614 44.8546 51.9104 44.9304 51.8445 44.9962C51.7786 45.0588 51.7012 45.1099 51.6123 45.1494C51.5266 45.1856 51.4344 45.2038 51.3356 45.2038C51.24 45.2038 51.1494 45.1856 51.0638 45.1494C50.9814 45.1099 50.909 45.0588 50.8464 44.9962C50.7838 44.9304 50.7327 44.8546 50.6932 44.7689C50.657 44.6833 50.6389 44.5927 50.6389 44.4972C50.6389 44.3984 50.657 44.3061 50.6932 44.2205C50.7327 44.1348 50.7838 44.0607 50.8464 43.9981C50.909 43.9322 50.9814 43.8812 51.0638 43.8449C51.1494 43.8054 51.24 43.7856 51.3356 43.7856C51.4344 43.7856 51.5266 43.8054 51.6123 43.8449C51.7012 43.8812 51.7786 43.9322 51.8445 43.9981C51.9104 44.0607 51.9614 44.1348 51.9977 44.2205C52.0372 44.3061 52.057 44.3984 52.057 44.4972ZM58.3678 48.8553C57.989 48.8685 57.6695 48.8998 57.4093 48.9492C57.149 48.9953 56.9382 49.0562 56.7768 49.132C56.6154 49.2045 56.4984 49.2918 56.426 49.3939C56.3568 49.496 56.3222 49.608 56.3222 49.7299C56.3222 49.8485 56.3403 49.9506 56.3765 50.0362C56.4161 50.1186 56.4688 50.1878 56.5347 50.2438C56.6038 50.2965 56.6829 50.336 56.7718 50.3624C56.8641 50.3854 56.9645 50.3969 57.0732 50.3969C57.35 50.3969 57.5871 50.3459 57.7848 50.2438C57.9857 50.1383 58.1801 49.9868 58.3678 49.7892V48.8553ZM55.5514 46.7207C56.1213 46.1903 56.7998 45.9252 57.5871 45.9252C57.877 45.9252 58.134 45.9729 58.358 46.0685C58.5853 46.1607 58.7747 46.2925 58.9262 46.4638C59.081 46.6351 59.198 46.8393 59.277 47.0765C59.3594 47.3104 59.4005 47.5706 59.4005 47.8572V51.0591H58.9262C58.8241 51.0591 58.7467 51.0442 58.694 51.0146C58.6413 50.9816 58.5968 50.9174 58.5605 50.8219L58.4568 50.4118C58.3283 50.5271 58.2015 50.6308 58.0763 50.7231C57.9511 50.812 57.821 50.8878 57.686 50.9504C57.5542 51.0129 57.4109 51.0591 57.2561 51.0887C57.1045 51.1216 56.9365 51.1381 56.7521 51.1381C56.5478 51.1381 56.3568 51.1101 56.1789 51.0541C56.0043 50.9981 55.8528 50.9141 55.7243 50.8021C55.5958 50.6868 55.4937 50.5452 55.418 50.3772C55.3455 50.2092 55.3092 50.0115 55.3092 49.7842C55.3092 49.5899 55.3603 49.4005 55.4624 49.216C55.5678 49.0315 55.7391 48.8668 55.9763 48.7219C56.2168 48.5736 56.5314 48.4518 56.9201 48.3562C57.3121 48.2607 57.7947 48.2064 58.3678 48.1932V47.8572C58.3678 47.4948 58.2904 47.2247 58.1356 47.0468C57.9808 46.8689 57.7535 46.78 57.4537 46.78C57.2495 46.78 57.0782 46.8064 56.9398 46.8591C56.8015 46.9085 56.6812 46.9628 56.5791 47.0221C56.477 47.0814 56.3864 47.1374 56.3074 47.1901C56.2283 47.2395 56.1443 47.2642 56.0554 47.2642C55.9829 47.2642 55.9203 47.2461 55.8676 47.2099C55.8182 47.1704 55.777 47.1226 55.7441 47.0666L55.5514 46.7207ZM66.1151 46.9332C66.0888 46.9793 66.0591 47.0122 66.0262 47.032C65.9932 47.0518 65.9521 47.0616 65.9026 47.0616C65.8466 47.0616 65.7857 47.0452 65.7198 47.0122C65.6539 46.976 65.5765 46.9365 65.4876 46.8936C65.3986 46.8508 65.2932 46.8129 65.1713 46.78C65.0528 46.7438 64.9128 46.7256 64.7513 46.7256C64.6196 46.7256 64.4993 46.7421 64.3906 46.7751C64.2852 46.8047 64.1946 46.8492 64.1189 46.9085C64.0464 46.9645 63.9904 47.032 63.9509 47.1111C63.9113 47.1868 63.8916 47.2692 63.8916 47.3581C63.8916 47.4767 63.9278 47.5755 64.0003 47.6546C64.0728 47.7336 64.1683 47.8028 64.2869 47.8621C64.4055 47.9181 64.5405 47.9692 64.6921 48.0153C64.8436 48.0614 64.9984 48.1108 65.1565 48.1635C65.3146 48.2162 65.4695 48.2772 65.621 48.3464C65.7725 48.4155 65.9076 48.5012 66.0262 48.6033C66.1448 48.7021 66.2403 48.824 66.3128 48.9689C66.3852 49.1106 66.4215 49.2835 66.4215 49.4878C66.4215 49.7249 66.3786 49.944 66.293 50.1449C66.2073 50.3459 66.0822 50.5205 65.9175 50.6687C65.7528 50.8169 65.5469 50.9322 65.2998 51.0146C65.056 51.0969 64.7761 51.1381 64.4598 51.1381C64.2852 51.1381 64.1156 51.1216 63.9509 51.0887C63.7895 51.0591 63.6346 51.0179 63.4864 50.9652C63.3415 50.9092 63.2048 50.8433 63.0763 50.7675C62.9511 50.6918 62.8391 50.6094 62.7403 50.5205L62.9873 50.1153C63.017 50.0659 63.0532 50.028 63.0961 50.0016C63.1422 49.972 63.1982 49.9572 63.264 49.9572C63.3332 49.9572 63.4008 49.9802 63.4666 50.0263C63.5358 50.0692 63.6149 50.1169 63.7038 50.1696C63.796 50.2223 63.9064 50.2718 64.0349 50.3179C64.1633 50.3607 64.3231 50.3821 64.5142 50.3821C64.6723 50.3821 64.809 50.364 64.9243 50.3278C65.0396 50.2882 65.1351 50.2355 65.2109 50.1696C65.2866 50.1038 65.3426 50.0296 65.3789 49.9473C65.4151 49.8616 65.4332 49.7711 65.4332 49.6755C65.4332 49.5471 65.397 49.4416 65.3245 49.3593C65.252 49.2769 65.1549 49.2061 65.033 49.1468C64.9144 49.0875 64.7777 49.0348 64.6229 48.9887C64.4713 48.9426 64.3165 48.8932 64.1584 48.8405C64.0003 48.7878 63.8438 48.7268 63.689 48.6576C63.5375 48.5885 63.4008 48.5012 63.2789 48.3958C63.1603 48.2871 63.0648 48.1569 62.9923 48.0054C62.9198 47.8506 62.8836 47.6628 62.8836 47.4421C62.8836 47.2412 62.9231 47.0501 63.0022 46.8689C63.0845 46.6878 63.2031 46.528 63.3579 46.3896C63.516 46.2513 63.7088 46.1426 63.9361 46.0635C64.1666 45.9812 64.4318 45.94 64.7316 45.94C65.0709 45.94 65.3789 45.9943 65.6556 46.1031C65.9323 46.2118 66.1645 46.36 66.3523 46.5478L66.1151 46.9332ZM74.0612 47.6496C73.7581 47.8275 73.5341 48.0351 73.3892 48.2722C73.2442 48.5094 73.1718 48.7663 73.1718 49.0431C73.1718 49.2374 73.2064 49.412 73.2755 49.5668C73.348 49.7184 73.4419 49.8468 73.5572 49.9522C73.6758 50.0576 73.8108 50.1384 73.9624 50.1944C74.1172 50.2504 74.2769 50.2783 74.4417 50.2783C74.7678 50.2783 75.0642 50.224 75.3311 50.1153C75.5979 50.0033 75.8351 49.8534 76.0426 49.6656L74.0612 47.6496ZM78.7355 51.0591H77.7028C77.6468 51.0591 77.5958 51.0558 77.5497 51.0492C77.5068 51.0426 77.4657 51.0327 77.4261 51.0195C77.3899 51.0031 77.3536 50.9816 77.3174 50.9553C77.2845 50.9289 77.2482 50.8944 77.2087 50.8515L76.6158 50.2487C76.3028 50.5254 75.9471 50.7428 75.5485 50.9009C75.1532 51.0591 74.7233 51.1381 74.2588 51.1381C73.9887 51.1381 73.7235 51.092 73.4633 50.9998C73.2064 50.9075 72.9758 50.7758 72.7715 50.6045C72.5673 50.4299 72.4026 50.2191 72.2774 49.972C72.1522 49.7216 72.0896 49.44 72.0896 49.1271C72.0896 48.8998 72.1259 48.6856 72.1984 48.4847C72.2741 48.2838 72.3779 48.0976 72.5097 47.9264C72.6447 47.7518 72.8028 47.5953 72.984 47.4569C73.1652 47.3186 73.3645 47.2 73.5819 47.1012C73.3941 46.8508 73.2574 46.6071 73.1718 46.3699C73.0861 46.1327 73.0433 45.8922 73.0433 45.6485C73.0433 45.4047 73.0878 45.1741 73.1767 44.9567C73.2656 44.7393 73.3941 44.5499 73.5621 44.3885C73.7334 44.2271 73.9393 44.1002 74.1798 44.008C74.4235 43.9125 74.6986 43.8647 75.0049 43.8647C75.2816 43.8647 75.5303 43.9075 75.7511 43.9932C75.9751 44.0788 76.1661 44.1941 76.3242 44.3391C76.4857 44.484 76.6108 44.6504 76.6998 44.8381C76.792 45.0259 76.8464 45.2202 76.8628 45.4212L76.1908 45.5595C76.1315 45.5727 76.0755 45.5645 76.0228 45.5348C75.9734 45.5052 75.9355 45.4558 75.9092 45.3866C75.8828 45.3009 75.8449 45.2169 75.7955 45.1346C75.7461 45.0489 75.6852 44.9732 75.6127 44.9073C75.5402 44.8414 75.4529 44.7887 75.3508 44.7492C75.252 44.7064 75.1367 44.6849 75.0049 44.6849C74.8534 44.6849 74.7167 44.7096 74.5948 44.7591C74.4762 44.8085 74.3741 44.8776 74.2885 44.9666C74.2061 45.0522 74.1419 45.1527 74.0958 45.268C74.0529 45.3833 74.0315 45.5068 74.0315 45.6386C74.0315 45.744 74.0431 45.8461 74.0661 45.9449C74.0892 46.0438 74.1271 46.1426 74.1798 46.2414C74.2325 46.3402 74.2984 46.4424 74.3774 46.5478C74.4598 46.6499 74.5586 46.7602 74.6739 46.8788L76.6355 48.8998C76.7541 48.6823 76.848 48.4567 76.9172 48.2228C76.9864 47.9856 77.0325 47.7468 77.0555 47.5064C77.0621 47.4372 77.0852 47.3828 77.1247 47.3433C77.1642 47.3005 77.2169 47.2791 77.2828 47.2791H77.94C77.9367 47.6908 77.8741 48.0878 77.7522 48.4699C77.6336 48.8487 77.4656 49.2012 77.2482 49.5273L78.7355 51.0591ZM83.6118 51.0591H82.4506V43.9438H83.6118V51.0591ZM88.554 46.6861C88.6627 46.5741 88.7747 46.4736 88.89 46.3847C89.0086 46.2925 89.1337 46.2134 89.2655 46.1475C89.3973 46.0816 89.5373 46.0306 89.6855 45.9943C89.8337 45.9581 89.9952 45.94 90.1697 45.94C90.4464 45.94 90.6886 45.9861 90.8961 46.0784C91.1069 46.1706 91.2832 46.3007 91.4248 46.4687C91.5697 46.6367 91.6785 46.8393 91.7509 47.0765C91.8234 47.3104 91.8596 47.5689 91.8596 47.8522V51.0591H90.8022V47.8522C90.8022 47.5129 90.7232 47.2494 90.565 47.0616C90.4102 46.8739 90.173 46.78 89.8535 46.78C89.6163 46.78 89.3956 46.8344 89.1914 46.9431C88.9904 47.0518 88.801 47.2 88.6232 47.3878V51.0591H87.5608V46.0191H88.2032C88.3481 46.0191 88.4403 46.0866 88.4799 46.2216L88.554 46.6861ZM99.7573 46.0191L97.7314 51.0591H96.7728L94.7469 46.0191H95.6215C95.7039 46.0191 95.7714 46.0405 95.8241 46.0833C95.8801 46.1228 95.9163 46.1706 95.9328 46.2266L97.0495 49.1616C97.0956 49.3 97.1368 49.4367 97.173 49.5718C97.2093 49.7068 97.2406 49.8435 97.2669 49.9819C97.2933 49.8435 97.3246 49.7085 97.3608 49.5767C97.4003 49.4416 97.4432 49.3033 97.4893 49.1616L98.6257 46.2266C98.6455 46.1673 98.6817 46.1179 98.7345 46.0784C98.7872 46.0388 98.8514 46.0191 98.9272 46.0191H99.7573ZM106.009 47.9708C106.009 47.7929 105.982 47.6282 105.929 47.4767C105.88 47.3219 105.806 47.1885 105.707 47.0765C105.608 46.9612 105.485 46.8722 105.337 46.8096C105.192 46.7438 105.024 46.7108 104.833 46.7108C104.447 46.7108 104.144 46.8212 103.923 47.0419C103.703 47.2626 103.563 47.5722 103.503 47.9708H106.009ZM103.474 48.6231C103.487 48.9096 103.531 49.1584 103.607 49.3692C103.683 49.5767 103.783 49.7496 103.909 49.888C104.037 50.0264 104.189 50.1301 104.363 50.1993C104.541 50.2652 104.739 50.2981 104.956 50.2981C105.164 50.2981 105.343 50.2751 105.495 50.2289C105.646 50.1795 105.778 50.1268 105.89 50.0708C106.002 50.0115 106.097 49.9588 106.177 49.9127C106.256 49.8633 106.328 49.8386 106.394 49.8386C106.48 49.8386 106.545 49.8715 106.592 49.9374L106.893 50.3278C106.768 50.476 106.626 50.6012 106.468 50.7033C106.31 50.8054 106.142 50.8894 105.964 50.9553C105.786 51.0179 105.603 51.0624 105.416 51.0887C105.228 51.1184 105.045 51.1332 104.867 51.1332C104.518 51.1332 104.193 51.0755 103.894 50.9602C103.597 50.8416 103.339 50.6687 103.118 50.4414C102.901 50.2141 102.729 49.9325 102.604 49.5965C102.482 49.2605 102.421 48.8734 102.421 48.4353C102.421 48.0861 102.476 47.76 102.584 47.4569C102.696 47.1539 102.854 46.8904 103.059 46.6664C103.266 46.4424 103.517 46.2661 103.81 46.1376C104.106 46.0059 104.441 45.94 104.813 45.94C105.122 45.94 105.409 45.9911 105.673 46.0932C105.936 46.192 106.163 46.3386 106.354 46.5329C106.545 46.7273 106.694 46.9661 106.799 47.2494C106.908 47.5294 106.962 47.8489 106.962 48.208C106.962 48.3727 106.944 48.4831 106.908 48.5391C106.872 48.5951 106.806 48.6231 106.71 48.6231H103.474ZM112.03 51.1381C111.611 51.1381 111.288 51.0212 111.061 50.7873C110.837 50.5501 110.725 50.2174 110.725 49.7892V46.8541H110.172C110.112 46.8541 110.061 46.836 110.018 46.7998C109.976 46.7602 109.954 46.7026 109.954 46.6268V46.1969L110.77 46.0784L111.002 44.6207C111.018 44.5647 111.046 44.5202 111.086 44.4873C111.125 44.4511 111.178 44.4329 111.244 44.4329H111.787V46.0882H113.186V46.8541H111.787V49.7151C111.787 49.8962 111.832 50.0346 111.921 50.1301C112.01 50.2256 112.128 50.2734 112.277 50.2734C112.359 50.2734 112.43 50.2635 112.489 50.2438C112.548 50.2207 112.599 50.1976 112.642 50.1746C112.685 50.1482 112.721 50.1252 112.751 50.1054C112.784 50.0824 112.815 50.0708 112.845 50.0708C112.904 50.0708 112.952 50.1038 112.988 50.1696L113.304 50.6885C113.14 50.8334 112.945 50.9454 112.721 51.0245C112.497 51.1002 112.267 51.1381 112.03 51.1381ZM117.591 46.0191V51.0591H116.529V46.0191H117.591ZM117.769 44.4972C117.769 44.5927 117.749 44.6833 117.71 44.7689C117.673 44.8546 117.622 44.9304 117.556 44.9962C117.491 45.0588 117.413 45.1099 117.324 45.1494C117.239 45.1856 117.146 45.2038 117.047 45.2038C116.952 45.2038 116.861 45.1856 116.776 45.1494C116.693 45.1099 116.621 45.0588 116.558 44.9962C116.496 44.9304 116.445 44.8546 116.405 44.7689C116.369 44.6833 116.351 44.5927 116.351 44.4972C116.351 44.3984 116.369 44.3061 116.405 44.2205C116.445 44.1348 116.496 44.0607 116.558 43.9981C116.621 43.9322 116.693 43.8812 116.776 43.8449C116.861 43.8054 116.952 43.7856 117.047 43.7856C117.146 43.7856 117.239 43.8054 117.324 43.8449C117.413 43.8812 117.491 43.9322 117.556 43.9981C117.622 44.0607 117.673 44.1348 117.71 44.2205C117.749 44.3061 117.769 44.3984 117.769 44.4972ZM121.387 51.0591V46.0191H122.029C122.174 46.0191 122.266 46.0866 122.306 46.2216L122.375 46.6614C122.467 46.556 122.563 46.4605 122.661 46.3748C122.76 46.2859 122.866 46.2101 122.978 46.1475C123.093 46.0816 123.215 46.0306 123.343 45.9943C123.475 45.9581 123.617 45.94 123.768 45.94C123.93 45.94 124.078 45.9631 124.213 46.0092C124.348 46.0553 124.467 46.1212 124.569 46.2068C124.674 46.2925 124.765 46.3962 124.84 46.5181C124.916 46.64 124.979 46.7767 125.028 46.9282C125.104 46.7536 125.2 46.6038 125.315 46.4786C125.43 46.3534 125.559 46.2513 125.7 46.1722C125.842 46.0932 125.992 46.0355 126.15 45.9993C126.311 45.9598 126.474 45.94 126.639 45.94C126.909 45.94 127.15 45.9828 127.36 46.0685C127.575 46.1541 127.754 46.2793 127.899 46.444C128.047 46.6054 128.159 46.8047 128.235 47.0419C128.311 47.2791 128.349 47.5492 128.349 47.8522V51.0591H127.286V47.8522C127.286 47.4965 127.209 47.2296 127.054 47.0518C126.903 46.8706 126.677 46.78 126.377 46.78C126.242 46.78 126.115 46.8031 125.997 46.8492C125.878 46.8953 125.774 46.9628 125.685 47.0518C125.596 47.1407 125.526 47.2527 125.473 47.3878C125.424 47.5195 125.399 47.6744 125.399 47.8522V51.0591H124.337V47.8522C124.337 47.4833 124.262 47.2132 124.114 47.0419C123.966 46.8673 123.749 46.78 123.462 46.78C123.264 46.78 123.081 46.8311 122.913 46.9332C122.745 47.032 122.591 47.1687 122.449 47.3433V51.0591H121.387ZM135.356 47.9708C135.356 47.7929 135.33 47.6282 135.277 47.4767C135.228 47.3219 135.154 47.1885 135.055 47.0765C134.956 46.9612 134.833 46.8722 134.684 46.8096C134.54 46.7438 134.372 46.7108 134.18 46.7108C133.795 46.7108 133.492 46.8212 133.271 47.0419C133.051 47.2626 132.911 47.5722 132.851 47.9708H135.356ZM132.822 48.6231C132.835 48.9096 132.879 49.1584 132.955 49.3692C133.031 49.5767 133.131 49.7496 133.256 49.888C133.385 50.0264 133.536 50.1301 133.711 50.1993C133.889 50.2652 134.087 50.2981 134.304 50.2981C134.512 50.2981 134.691 50.2751 134.843 50.2289C134.994 50.1795 135.126 50.1268 135.238 50.0708C135.35 50.0115 135.445 49.9588 135.524 49.9127C135.604 49.8633 135.676 49.8386 135.742 49.8386C135.828 49.8386 135.893 49.8715 135.94 49.9374L136.241 50.3278C136.116 50.476 135.974 50.6012 135.816 50.7033C135.658 50.8054 135.49 50.8894 135.312 50.9553C135.134 51.0179 134.951 51.0624 134.764 51.0887C134.576 51.1184 134.393 51.1332 134.215 51.1332C133.866 51.1332 133.541 51.0755 133.242 50.9602C132.945 50.8416 132.687 50.6687 132.466 50.4414C132.248 50.2141 132.077 49.9325 131.952 49.5965C131.83 49.2605 131.769 48.8734 131.769 48.4353C131.769 48.0861 131.824 47.76 131.932 47.4569C132.044 47.1539 132.202 46.8904 132.407 46.6664C132.614 46.4424 132.864 46.2661 133.158 46.1376C133.454 46.0059 133.788 45.94 134.161 45.94C134.47 45.94 134.757 45.9911 135.02 46.0932C135.284 46.192 135.511 46.3386 135.702 46.5329C135.893 46.7273 136.042 46.9661 136.147 47.2494C136.256 47.5294 136.31 47.8489 136.31 48.208C136.31 48.3727 136.292 48.4831 136.256 48.5391C136.22 48.5951 136.154 48.6231 136.058 48.6231H132.822ZM140.755 46.6861C140.864 46.5741 140.976 46.4736 141.091 46.3847C141.209 46.2925 141.335 46.2134 141.466 46.1475C141.598 46.0816 141.738 46.0306 141.886 45.9943C142.035 45.9581 142.196 45.94 142.371 45.94C142.647 45.94 142.889 45.9861 143.097 46.0784C143.308 46.1706 143.484 46.3007 143.626 46.4687C143.771 46.6367 143.879 46.8393 143.952 47.0765C144.024 47.3104 144.061 47.5689 144.061 47.8522V51.0591H143.003V47.8522C143.003 47.5129 142.924 47.2494 142.766 47.0616C142.611 46.8739 142.374 46.78 142.054 46.78C141.817 46.78 141.597 46.8344 141.392 46.9431C141.191 47.0518 141.002 47.2 140.824 47.3878V51.0591H139.762V46.0191H140.404C140.549 46.0191 140.641 46.0866 140.681 46.2216L140.755 46.6861ZM149.378 51.1381C148.96 51.1381 148.637 51.0212 148.409 50.7873C148.185 50.5501 148.073 50.2174 148.073 49.7892V46.8541H147.52C147.461 46.8541 147.41 46.836 147.367 46.7998C147.324 46.7602 147.303 46.7026 147.303 46.6268V46.1969L148.118 46.0784L148.35 44.6207C148.367 44.5647 148.395 44.5202 148.434 44.4873C148.474 44.4511 148.526 44.4329 148.592 44.4329H149.136V46.0882H150.534V46.8541H149.136V49.7151C149.136 49.8962 149.18 50.0346 149.269 50.1301C149.358 50.2256 149.477 50.2734 149.625 50.2734C149.707 50.2734 149.778 50.2635 149.837 50.2438C149.897 50.2207 149.948 50.1976 149.991 50.1746C150.033 50.1482 150.07 50.1252 150.099 50.1054C150.132 50.0824 150.164 50.0708 150.193 50.0708C150.252 50.0708 150.3 50.1038 150.336 50.1696L150.653 50.6885C150.488 50.8334 150.294 50.9454 150.07 51.0245C149.846 51.1002 149.615 51.1381 149.378 51.1381ZM156.012 45.94C156.384 45.94 156.72 46.0009 157.02 46.1228C157.323 46.2447 157.58 46.4176 157.79 46.6416C158.005 46.8656 158.169 47.1374 158.285 47.4569C158.4 47.7765 158.457 48.1355 158.457 48.5341C158.457 48.9327 158.4 49.2918 158.285 49.6113C158.169 49.9308 158.005 50.2042 157.79 50.4315C157.58 50.6555 157.323 50.8285 157.02 50.9504C156.72 51.0722 156.384 51.1332 156.012 51.1332C155.636 51.1332 155.297 51.0722 154.994 50.9504C154.694 50.8285 154.437 50.6555 154.223 50.4315C154.009 50.2042 153.844 49.9308 153.729 49.6113C153.613 49.2918 153.556 48.9327 153.556 48.5341C153.556 48.1355 153.613 47.7765 153.729 47.4569C153.844 47.1374 154.009 46.8656 154.223 46.6416C154.437 46.4176 154.694 46.2447 154.994 46.1228C155.297 46.0009 155.636 45.94 156.012 45.94ZM156.012 50.3031C156.466 50.3031 156.804 50.1515 157.025 49.8485C157.249 49.5421 157.361 49.1056 157.361 48.5391C157.361 47.9725 157.249 47.536 157.025 47.2296C156.804 46.92 156.466 46.7652 156.012 46.7652C155.55 46.7652 155.208 46.92 154.984 47.2296C154.76 47.536 154.648 47.9725 154.648 48.5391C154.648 49.1056 154.76 49.5421 154.984 49.8485C155.208 50.1515 155.55 50.3031 156.012 50.3031ZM164.949 46.9332C164.922 46.9793 164.893 47.0122 164.86 47.032C164.827 47.0518 164.786 47.0616 164.736 47.0616C164.68 47.0616 164.619 47.0452 164.553 47.0122C164.487 46.976 164.41 46.9365 164.321 46.8936C164.232 46.8508 164.126 46.8129 164.004 46.78C163.886 46.7438 163.746 46.7256 163.584 46.7256C163.453 46.7256 163.332 46.7421 163.224 46.7751C163.118 46.8047 163.028 46.8492 162.952 46.9085C162.879 46.9645 162.823 47.032 162.784 47.1111C162.744 47.1868 162.725 47.2692 162.725 47.3581C162.725 47.4767 162.761 47.5755 162.833 47.6546C162.906 47.7336 163.001 47.8028 163.12 47.8621C163.239 47.9181 163.374 47.9692 163.525 48.0153C163.677 48.0614 163.831 48.1108 163.99 48.1635C164.148 48.2162 164.303 48.2772 164.454 48.3464C164.606 48.4155 164.741 48.5012 164.86 48.6033C164.978 48.7021 165.074 48.824 165.146 48.9689C165.219 49.1106 165.255 49.2835 165.255 49.4878C165.255 49.7249 165.212 49.944 165.127 50.1449C165.041 50.3459 164.916 50.5205 164.751 50.6687C164.586 50.8169 164.38 50.9322 164.133 51.0146C163.889 51.0969 163.609 51.1381 163.293 51.1381C163.118 51.1381 162.949 51.1216 162.784 51.0887C162.623 51.0591 162.468 51.0179 162.319 50.9652C162.175 50.9092 162.038 50.8433 161.909 50.7675C161.784 50.6918 161.672 50.6094 161.573 50.5205L161.82 50.1153C161.85 50.0659 161.886 50.028 161.929 50.0016C161.975 49.972 162.031 49.9572 162.097 49.9572C162.166 49.9572 162.234 49.9802 162.3 50.0263C162.369 50.0692 162.448 50.1169 162.537 50.1696C162.629 50.2223 162.739 50.2718 162.868 50.3179C162.996 50.3607 163.156 50.3821 163.347 50.3821C163.505 50.3821 163.642 50.364 163.757 50.3278C163.873 50.2882 163.968 50.2355 164.044 50.1696C164.12 50.1038 164.176 50.0296 164.212 49.9473C164.248 49.8616 164.266 49.7711 164.266 49.6755C164.266 49.5471 164.23 49.4416 164.158 49.3593C164.085 49.2769 163.988 49.2061 163.866 49.1468C163.747 49.0875 163.611 49.0348 163.456 48.9887C163.304 48.9426 163.15 48.8932 162.991 48.8405C162.833 48.7878 162.677 48.7268 162.522 48.6576C162.371 48.5885 162.234 48.5012 162.112 48.3958C161.993 48.2871 161.898 48.1569 161.825 48.0054C161.753 47.8506 161.717 47.6628 161.717 47.4421C161.717 47.2412 161.756 47.0501 161.835 46.8689C161.918 46.6878 162.036 46.528 162.191 46.3896C162.349 46.2513 162.542 46.1426 162.769 46.0635C163 45.9812 163.265 45.94 163.565 45.94C163.904 45.94 164.212 45.9943 164.489 46.1031C164.766 46.2118 164.998 46.36 165.186 46.5478L164.949 46.9332Z" fill="white"/>
<path d="M118.589 9.88232H93.8828V34.5882H118.589V9.88232Z" fill="white"/>
<path d="M105.246 28.9221V24.0798H100.371V22.1033H105.246V17.228H107.223V22.1033H112.065V24.0798H107.223V28.9221H105.246Z" fill="#1F628E"/>
</svg>
